<svg xmlns="http://www.w3.org/2000/svg" xmlns:xlink="http://www.w3.org/1999/xlink" width="2000" zoomAndPan="magnify" viewBox="0 0 1500 1499.999933" height="2000" preserveAspectRatio="xMidYMid meet" version="1.0"><defs><filter x="0%" y="0%" width="100%" height="100%" id="6f7760efef"><feColorMatrix values="0 0 0 0 1 0 0 0 0 1 0 0 0 0 1 0 0 0 1 0" color-interpolation-filters="sRGB"/></filter><clipPath id="9b3abacb49"><path d="M 750 0 C 335.785156 0 0 335.785156 0 750 C 0 1164.214844 335.785156 1500 750 1500 C 1164.214844 1500 1500 1164.214844 1500 750 C 1500 335.785156 1164.214844 0 750 0 Z M 750 0 " clip-rule="nonzero"/></clipPath><clipPath id="d2a87ec140"><path d="M 0 0 L 1500 0 L 1500 1500 L 0 1500 Z M 0 0 " clip-rule="nonzero"/></clipPath><clipPath id="47043e1b66"><path d="M 750 0 C 335.785156 0 0 335.785156 0 750 C 0 1164.214844 335.785156 1500 750 1500 C 1164.214844 1500 1500 1164.214844 1500 750 C 1500 335.785156 1164.214844 0 750 0 Z M 750 0 " clip-rule="nonzero"/></clipPath><clipPath id="09e3b6e781"><rect x="0" width="1500" y="0" height="1500"/></clipPath><mask id="8af1e3cf61"><g filter="url(#6f7760efef)"><rect x="-150" width="1800" fill="#000000" y="-149.999993" height="1799.99992" fill-opacity="0.8"/></g></mask><clipPath id="6132daa271"><path d="M 0.359375 0.601562 L 106.441406 0.601562 L 106.441406 155 L 0.359375 155 Z M 0.359375 0.601562 " clip-rule="nonzero"/></clipPath><clipPath id="e3c5391e9f"><rect x="0" width="107" y="0" height="156"/></clipPath><mask id="975e875c18"><g filter="url(#6f7760efef)"><rect x="-150" width="1800" fill="#000000" y="-149.999993" height="1799.99992" fill-opacity="0.8"/></g></mask><clipPath id="f3a230b326"><path d="M 1 0.519531 L 29.800781 0.519531 L 29.800781 54 L 1 54 Z M 1 0.519531 " clip-rule="nonzero"/></clipPath><clipPath id="996fa385ee"><rect x="0" width="30" y="0" height="55"/></clipPath><mask id="f93a6d93b6"><g filter="url(#6f7760efef)"><rect x="-150" width="1800" fill="#000000" y="-149.999993" height="1799.99992" fill-opacity="0.6"/></g></mask><clipPath id="9369c28eed"><path d="M 1 0.71875 L 166.558594 0.71875 L 166.558594 157.917969 L 1 157.917969 Z M 1 0.71875 " clip-rule="nonzero"/></clipPath><clipPath id="058424b808"><rect x="0" width="167" y="0" height="158"/></clipPath><mask id="4fc0fdd1ce"><g filter="url(#6f7760efef)"><rect x="-150" width="1800" fill="#000000" y="-149.999993" height="1799.99992" fill-opacity="0.8"/></g></mask><clipPath id="c8f91fc821"><path d="M 0.238281 1 L 97.679688 1 L 97.679688 80.640625 L 0.238281 80.640625 Z M 0.238281 1 " clip-rule="nonzero"/></clipPath><clipPath id="e45aa78817"><rect x="0" width="98" y="0" height="81"/></clipPath><mask id="758d84d9b4"><g filter="url(#6f7760efef)"><rect x="-150" width="1800" fill="#000000" y="-149.999993" height="1799.99992" fill-opacity="0.8"/></g></mask><clipPath id="d4f7e5b041"><path d="M 0.359375 0.519531 L 124 0.519531 L 124 79.480469 L 0.359375 79.480469 Z M 0.359375 0.519531 " clip-rule="nonzero"/></clipPath><clipPath id="b81271abc5"><rect x="0" width="125" y="0" height="80"/></clipPath><mask id="3c2d7f1017"><g filter="url(#6f7760efef)"><rect x="-150" width="1800" fill="#000000" y="-149.999993" height="1799.99992" fill-opacity="0.6"/></g></mask><clipPath id="2e7b3631f8"><path d="M 1 0.199219 L 47.761719 0.199219 L 47.761719 104.839844 L 1 104.839844 Z M 1 0.199219 " clip-rule="nonzero"/></clipPath><clipPath id="4a581c25bf"><rect x="0" width="48" y="0" height="105"/></clipPath><mask id="b14e7b147f"><g filter="url(#6f7760efef)"><rect x="-150" width="1800" fill="#000000" y="-149.999993" height="1799.99992" fill-opacity="0.6"/></g></mask><clipPath id="4ff6ca5d31"><path d="M 1 0.519531 L 60.921875 0.519531 L 60.921875 94.839844 L 1 94.839844 Z M 1 0.519531 " clip-rule="nonzero"/></clipPath><clipPath id="6ff65d62ee"><rect x="0" width="61" y="0" height="95"/></clipPath></defs><g clip-path="url(#9b3abacb49)"><g transform="matrix(1, 0, 0, 1, 0, 0.000000000000112861)"><g clip-path="url(#09e3b6e781)"><g clip-path="url(#d2a87ec140)"><g clip-path="url(#47043e1b66)"><rect x="-330" width="2160" fill="#2f2d27" height="2159.999904" y="-329.999985" fill-opacity="1"/></g></g></g></g></g><path fill="#ffffff" d="M 773.628906 378.773438 C 739.058594 345.800781 692.402344 329.238281 651.871094 359.125 C 651.199219 361.027344 650.789062 362.929688 650.324219 364.882812 C 615.140625 509.945312 542.457031 773.0625 436.851562 874.707031 C 523.835938 903.976562 581.085938 867.8125 616.273438 808.8125 C 628.050781 786.28125 640.140625 752.382812 651.457031 723.164062 C 689.574219 619.050781 740.65625 482.011719 773.628906 378.773438 Z M 773.628906 378.773438 " fill-opacity="1" fill-rule="nonzero"/><path fill="#ffffff" d="M 651.871094 359.125 C 651.816406 359.125 651.816406 359.125 651.871094 359.125 C 651.148438 361.027344 653.105469 363.136719 652.433594 365.039062 C 600.789062 504.800781 543.589844 769.410156 436.796875 874.757812 C 504.855469 892.96875 571.261719 852.382812 602.691406 793.378906 C 627.230469 756.035156 747.085938 376.820312 752.691406 361.488281 C 752.640625 361.4375 677.023438 339.574219 651.871094 359.125 Z M 651.871094 359.125 " fill-opacity="1" fill-rule="nonzero"/><path fill="#ffffff" d="M 651.871094 359.125 C 651.871094 359.125 654.851562 362.980469 654.800781 362.980469 C 654.800781 362.980469 652.023438 359.175781 652.023438 359.175781 C 651.355469 361.078125 652.589844 364.574219 652.488281 366.582031 C 646.671875 478.308594 608.660156 733.246094 436.796875 874.707031 C 507.476562 888.699219 575.121094 814.417969 615.191406 726.714844 C 656.859375 626.714844 700.273438 457.527344 732.425781 357.117188 C 732.011719 357.015625 669.410156 345.695312 651.871094 359.125 Z M 651.871094 359.125 " fill-opacity="1" fill-rule="nonzero"/><path fill="#ffffff" d="M 676.664062 348.113281 C 662.570312 351.203125 658.144531 354.800781 651.871094 359.070312 C 633.863281 409.019531 616.324219 466.375 600.019531 518.074219 C 559.121094 637.003906 524.605469 780.3125 436.851562 874.65625 C 549.554688 840.960938 677.023438 348.0625 676.664062 348.113281 Z M 676.664062 348.113281 " fill-opacity="1" fill-rule="nonzero"/><path fill="#ffffff" d="M 676.457031 348.988281 C 674.144531 362.261719 543.226562 838.59375 437.3125 874.605469 C 609.84375 829.644531 666.992188 469.410156 706.859375 347.960938 C 705.058594 353.464844 691.273438 346.007812 676.457031 348.988281 Z M 676.457031 348.988281 " fill-opacity="1" fill-rule="nonzero"/><g mask="url(#8af1e3cf61)"><g transform="matrix(1, 0, 0, 1, 651, 345)"><g clip-path="url(#e3c5391e9f)"><g clip-path="url(#6132daa271)"><path fill="#ffffff" d="M 106.269531 84.234375 C 106.269531 84.234375 106.21875 84.339844 106.167969 84.542969 C 106.0625 84.851562 105.859375 85.417969 105.601562 86.191406 C 102.667969 94.625 90.734375 128.730469 81.0625 154.65625 C 76.332031 0.078125 0.871094 14.070312 0.871094 14.070312 C 1.691406 13.503906 2.464844 12.941406 3.234375 12.375 C 5.703125 10.675781 8.070312 9.234375 10.335938 8 C 19.027344 3.113281 25.714844 1.210938 27.207031 0.800781 C 27.257812 0.800781 27.359375 0.75 27.359375 0.75 C 27.414062 0.75 27.464844 0.699219 27.515625 0.699219 L 49.070312 7.488281 L 53.648438 8.925781 L 62.132812 15.613281 L 79.316406 29.195312 L 96.289062 42.570312 L 97.523438 47.765625 Z M 106.269531 84.234375 " fill-opacity="1" fill-rule="nonzero"/></g></g></g></g><path fill="#ffffff" d="M 651.871094 359.070312 C 651.921875 359.019531 652.125 358.867188 652.539062 358.660156 C 652.28125 358.8125 652.074219 358.96875 651.871094 359.070312 Z M 651.871094 359.070312 " fill-opacity="1" fill-rule="nonzero"/><path fill="#ffffff" d="M 1077.484375 455.933594 C 992.917969 602.332031 835.871094 706.445312 651.304688 723.164062 C 643.894531 743.585938 635.769531 764.777344 626.765625 785.613281 C 793.175781 777.691406 1019.972656 645.851562 1077.484375 455.933594 C 1077.585938 455.726562 1077.484375 455.933594 1077.484375 455.933594 Z M 1077.484375 455.933594 " fill-opacity="1" fill-rule="nonzero"/><path fill="#ffffff" d="M 1077.484375 455.933594 C 992.917969 602.332031 835.871094 706.445312 651.304688 723.164062 C 643.894531 743.585938 643.691406 743.328125 636.230469 763.082031 C 802.640625 755.160156 994.304688 646.621094 1077.484375 455.933594 C 1077.585938 455.726562 1077.484375 455.933594 1077.484375 455.933594 Z M 1077.484375 455.933594 " fill-opacity="1" fill-rule="nonzero"/><path fill="#ffffff" d="M 650.6875 723.371094 C 643.277344 743.792969 647.753906 733.039062 641.476562 749.191406 C 807.886719 741.269531 990.191406 632.269531 1077.484375 455.933594 C 992.917969 602.332031 835.304688 706.652344 650.6875 723.371094 Z M 650.6875 723.371094 " fill-opacity="1" fill-rule="nonzero"/><path fill="#ffffff" d="M 959.222656 596.054688 C 953.617188 600.738281 947.90625 605.316406 942.09375 609.789062 C 902.277344 640.449219 857.835938 665.910156 809.894531 685.097656 C 807.113281 686.230469 804.335938 687.3125 801.558594 688.390625 C 791.835938 692.09375 781.960938 695.59375 771.980469 698.78125 C 770.386719 699.296875 768.792969 699.757812 767.25 700.273438 C 732.269531 711.128906 695.695312 718.6875 657.992188 722.597656 C 655.832031 722.804688 653.667969 723.0625 651.507812 723.214844 C 651.148438 723.265625 650.839844 723.265625 650.480469 723.320312 C 648.421875 729.027344 646.621094 731.085938 644.875 731.550781 L 644.875 737.308594 C 645.335938 737.257812 645.746094 737.257812 646.210938 737.207031 C 650.53125 736.847656 654.902344 736.4375 659.226562 735.972656 C 697.960938 731.753906 737.773438 722.855469 776.972656 709.429688 C 778.257812 708.964844 779.59375 708.554688 780.878906 708.09375 C 790.757812 704.644531 800.582031 700.890625 810.355469 696.828125 C 813.648438 695.488281 816.941406 694.050781 820.179688 692.660156 C 863.90625 673.628906 906.136719 648.78125 944.460938 618.378906 C 950.992188 613.238281 957.371094 607.886719 963.648438 602.382812 C 1009.738281 562.105469 1049.242188 513.1875 1077.484375 456.085938 C 1046.929688 508.863281 1006.753906 556.292969 959.222656 596.054688 Z M 959.222656 596.054688 " fill-opacity="1" fill-rule="nonzero"/><path fill="#ffffff" d="M 1077.484375 455.933594 C 1057.214844 524.65625 1022.855469 585.714844 978.410156 636.898438 C 973.933594 642.042969 969.355469 647.136719 964.675781 652.074219 C 963.542969 653.257812 962.464844 654.441406 961.332031 655.570312 C 958.296875 658.761719 955.160156 661.847656 952.074219 664.933594 C 927.433594 689.214844 900.273438 710.765625 871.261719 729.386719 C 866.015625 732.785156 860.664062 736.023438 855.261719 739.214844 C 841.015625 747.597656 826.40625 755.3125 811.386719 762.257812 C 809.996094 762.875 808.660156 763.542969 807.269531 764.160156 C 757.21875 786.847656 703.257812 801.507812 647.546875 807.011719 C 637.105469 808.039062 626.664062 808.710938 616.117188 809.070312 C 616.167969 808.964844 616.222656 808.8125 616.273438 808.710938 C 619.925781 801.042969 623.421875 793.328125 626.765625 785.507812 C 626.871094 785.507812 626.921875 785.507812 627.023438 785.507812 C 636.128906 785.097656 645.4375 784.273438 654.851562 783.09375 C 700.996094 777.382812 750.53125 763.03125 799.140625 741.324219 C 800.738281 740.601562 802.332031 739.882812 803.925781 739.164062 C 815.242188 734.019531 826.457031 728.460938 837.566406 722.496094 C 842.144531 720.027344 846.722656 717.558594 851.25 714.933594 C 884.019531 696.3125 915.5 674.449219 944.304688 649.65625 C 946.722656 647.597656 949.140625 645.488281 951.507812 643.328125 C 953.824219 641.273438 956.1875 639.164062 958.453125 637.003906 C 963.75 632.117188 968.945312 627.125 973.988281 622.03125 C 1021.363281 574.605469 1058.605469 518.433594 1077.484375 455.933594 Z M 1077.484375 455.933594 " fill-opacity="1" fill-rule="nonzero"/><g mask="url(#975e875c18)"><g transform="matrix(1, 0, 0, 1, 935, 611)"><g clip-path="url(#996fa385ee)"><g clip-path="url(#f3a230b326)"><path fill="#ffffff" d="M 29.675781 41.125 C 28.542969 42.308594 26.332031 44.625 26.332031 44.625 C 23.296875 47.8125 20.160156 50.898438 17.074219 53.984375 C 16.351562 53.882812 15.890625 53.78125 15.890625 53.78125 L 9.304688 38.65625 L 1.382812 20.550781 L 2.566406 12.578125 L 4.265625 0.898438 L 4.265625 0.796875 C 4.265625 0.796875 4.265625 0.796875 4.316406 0.847656 C 4.675781 1.105469 7.042969 2.75 10.4375 6.402344 C 14.039062 10.363281 18.769531 16.640625 23.453125 26.054688 C 25.5625 30.324219 27.667969 35.3125 29.675781 40.972656 C 29.675781 41.023438 29.675781 41.074219 29.675781 41.125 Z M 29.675781 41.125 " fill-opacity="1" fill-rule="nonzero"/></g></g></g></g><path fill="#ffffff" d="M 957.988281 664.367188 C 935.097656 623.421875 902.535156 563.75 866.375 506.859375 C 862.617188 500.941406 858.8125 495.078125 854.953125 489.265625 C 830.625 452.332031 805.007812 417.609375 779.699219 391.273438 C 759.222656 369.976562 739.007812 354.132812 719.871094 347.136719 C 713.648438 344.824219 707.527344 343.484375 701.613281 343.175781 C 701.972656 343.175781 702.332031 343.125 702.691406 343.125 C 739.265625 341.738281 766.21875 344.71875 788.132812 354.339844 C 792.917969 356.398438 797.394531 358.8125 801.765625 361.539062 C 825.941406 376.714844 844.203125 402.230469 864.574219 441.941406 C 904.441406 515.914062 931.910156 592.351562 957.988281 664.316406 C 957.988281 664.265625 957.988281 664.316406 957.988281 664.367188 Z M 957.988281 664.367188 " fill-opacity="1" fill-rule="nonzero"/><path fill="#ffffff" d="M 651.871094 359.125 C 651.921875 359.125 651.921875 359.070312 651.972656 359.070312 C 651.921875 359.070312 651.871094 359.070312 651.871094 359.125 Z M 651.871094 359.125 " fill-opacity="1" fill-rule="nonzero"/><path fill="#ffffff" d="M 1034.121094 875.476562 L 1033.863281 875.476562 C 960.972656 718.433594 857.835938 537.515625 757.425781 402.949219 C 748.988281 393.28125 740.347656 383.402344 730.316406 374.246094 C 711.28125 356.191406 682.476562 339.832031 657.425781 355.417969 C 817.09375 259.070312 979.335938 769.71875 1034.121094 875.476562 Z M 1034.121094 875.476562 " fill-opacity="1" fill-rule="nonzero"/><path fill="#ffffff" d="M 1033.863281 875.476562 L 1033.761719 875.476562 C 1032.988281 873.933594 1032.21875 872.441406 1031.394531 870.898438 C 1000.734375 811.847656 957.988281 747.699219 906.652344 681.035156 C 877.382812 643.019531 845.335938 604.132812 811.074219 564.933594 C 806.910156 554.132812 803.359375 544.976562 801.355469 539.882812 C 791.582031 512.621094 779.492188 479.699219 769.203125 455.574219 C 768.226562 453.359375 767.300781 451.199219 766.375 449.144531 C 765.449219 447.085938 764.574219 445.078125 763.648438 443.175781 C 742.558594 398.113281 719.253906 361.179688 693.277344 351.148438 C 693.433594 351.203125 693.535156 351.253906 693.691406 351.304688 C 753.464844 359.636719 826.714844 469.257812 892.503906 590.601562 C 913.648438 629.542969 933.964844 669.71875 952.894531 708.144531 C 985.40625 774.089844 1013.542969 834.890625 1033.863281 875.476562 Z M 1033.863281 875.476562 " fill-opacity="1" fill-rule="nonzero"/><path fill="#ffffff" d="M 1034.324219 875.476562 L 1034.121094 875.476562 C 1016.269531 836.898438 992.863281 779.078125 965.550781 715.5 C 953.566406 687.671875 940.859375 658.761719 927.535156 629.902344 C 925.734375 625.992188 923.933594 622.136719 922.136719 618.226562 C 901.042969 573.269531 878.515625 528.824219 854.953125 489.164062 C 830.984375 448.78125 805.984375 413.445312 780.519531 387.570312 C 755.210938 361.902344 729.441406 345.644531 703.667969 343.125 C 703.359375 343.074219 703.050781 343.074219 702.691406 343.023438 C 703.050781 343.074219 703.464844 343.074219 703.824219 343.125 C 707.785156 343.484375 711.640625 343.949219 715.449219 344.515625 C 715.5 344.515625 715.5 344.515625 715.5 344.515625 C 741.476562 348.476562 764.109375 357.886719 784.171875 371.417969 C 870.335938 429.441406 908.710938 563.03125 957.9375 664.214844 C 958.554688 665.550781 959.222656 666.835938 959.890625 668.175781 C 960.40625 669.5625 960.871094 670.953125 961.382812 672.339844 C 962.824219 676.457031 964.316406 680.570312 965.757812 684.738281 C 967.660156 690.242188 969.613281 695.746094 971.515625 701.355469 C 971.671875 701.714844 971.773438 702.125 971.929688 702.484375 C 993.175781 763.957031 1014.367188 828.976562 1034.324219 875.476562 Z M 1034.324219 875.476562 " fill-opacity="1" fill-rule="nonzero"/><g mask="url(#f93a6d93b6)"><g transform="matrix(1, 0, 0, 1, 810, 564)"><g clip-path="url(#058424b808)"><g clip-path="url(#9369c28eed)"><path fill="#ffffff" d="M 166.199219 157.722656 C 162.804688 155.71875 159.253906 153.660156 155.601562 151.5 C 117.484375 129.175781 67.382812 99.800781 31.375 78.761719 C 31.324219 78.609375 9.925781 23.671875 1.128906 0.933594 C 46.1875 16.777344 87.289062 36.992188 117.535156 65.902344 C 133.792969 81.4375 146.910156 99.546875 155.757812 120.789062 C 157.660156 126.292969 159.613281 131.796875 161.519531 137.40625 C 161.671875 137.765625 161.773438 138.175781 161.929688 138.535156 C 163.730469 144.710938 165.117188 151.089844 166.199219 157.722656 Z M 166.199219 157.722656 " fill-opacity="1" fill-rule="nonzero"/></g></g></g></g><path fill="#ffffff" d="M 1031.445312 870.953125 C 1000.785156 811.898438 958.039062 747.753906 906.703125 681.085938 C 877.433594 643.070312 845.386719 604.183594 811.128906 564.984375 C 806.960938 554.183594 803.410156 545.027344 801.40625 539.933594 C 791.632812 512.671875 779.542969 479.75 769.253906 455.625 C 768.277344 453.414062 767.351562 451.253906 766.425781 449.195312 C 783.402344 456.34375 818.019531 504.082031 857.167969 565.964844 C 882.886719 606.601562 910.613281 653.359375 936.640625 698.679688 C 976.867188 768.636719 1012.976562 835.304688 1031.445312 870.953125 Z M 1031.445312 870.953125 " fill-opacity="1" fill-rule="nonzero"/><g mask="url(#4fc0fdd1ce)"><g transform="matrix(1, 0, 0, 1, 774, 684)"><g clip-path="url(#e45aa78817)"><g clip-path="url(#c8f91fc821)"><path fill="#ffffff" d="M 97.210938 45.492188 C 76.738281 58.558594 55.335938 70.441406 33.117188 80.316406 C 28.023438 55.46875 16.808594 26.921875 0.503906 14.113281 C 14.957031 9.636719 21.851562 6.757812 35.894531 1.097656 C 52.765625 13.289062 80.335938 33.25 97.210938 45.492188 Z M 97.210938 45.492188 " fill-opacity="1" fill-rule="nonzero"/></g></g></g></g><path fill="#ffffff" d="M 1058.398438 864.007812 C 1058.398438 864.007812 1058.398438 863.957031 1058.347656 863.957031 C 1051.96875 851.300781 1042.503906 837.308594 1032.164062 822.03125 C 955.003906 707.785156 775.53125 535.203125 596.828125 530.519531 C 448.371094 527.898438 414.472656 661.332031 497.496094 743.945312 C 502.332031 748.78125 507.578125 753.410156 513.1875 757.835938 C 511.644531 761.332031 506.757812 771.671875 503.566406 777.382812 C 495.851562 772.648438 488.703125 767.558594 482.117188 762.207031 C 359.484375 662.875 434.535156 472.652344 608.660156 490.242188 C 800.273438 504.800781 1026.09375 713.03125 1058.398438 864.007812 Z M 1058.398438 864.007812 " fill-opacity="1" fill-rule="nonzero"/><path fill="#ffffff" d="M 1051.351562 870.539062 C 1039.777344 880.261719 1025.066406 886.796875 1010.097656 887.722656 C 995.953125 861.847656 979.285156 836.382812 961.382812 812.515625 C 923.882812 762.617188 880.003906 717.195312 831.601562 677.84375 C 757.527344 618.84375 573.679688 538.957031 514.679688 608.554688 C 495.335938 638.855469 502.488281 685.355469 534.328125 709.480469 C 530.78125 718.433594 527.898438 724.5 524.402344 732.421875 C 471.570312 688.699219 457.476562 596.414062 535.511719 562.105469 C 729.285156 480.316406 984.378906 765.140625 1034.582031 876.457031 C 1034.738281 876.402344 1051.199219 870.589844 1051.351562 870.539062 Z M 1051.351562 870.539062 " fill-opacity="1" fill-rule="nonzero"/><path fill="#ffffff" d="M 1010.046875 887.667969 C 976.609375 889.933594 943.277344 867.402344 923.832031 835.5625 C 874.808594 763.597656 696.828125 589.316406 572.703125 602.382812 C 530.726562 608.351562 503.207031 656.136719 541.425781 691.425781 C 541.015625 692.453125 535.613281 706.34375 533.867188 710.820312 C 497.085938 683.8125 491.375 636.746094 514.679688 608.605469 C 585.101562 522.496094 762.773438 620.746094 831.496094 677.84375 C 879.902344 717.195312 923.832031 762.617188 961.28125 812.515625 C 979.234375 836.332031 995.898438 861.796875 1010.046875 887.667969 Z M 1010.046875 887.667969 " fill-opacity="1" fill-rule="nonzero"/><path fill="#ffffff" d="M 1058.398438 864.007812 C 1053 871.3125 1043.6875 877.636719 1035.867188 880.621094 C 985.664062 778.203125 791.941406 550.789062 605.882812 550.890625 C 543.84375 550.941406 485.253906 579.75 481.859375 638.492188 C 479.390625 669.820312 493.742188 699.5 513.394531 721.363281 C 516.941406 725.324219 520.695312 729.027344 524.503906 732.421875 C 524.605469 732.527344 524.710938 732.628906 524.8125 732.679688 C 518.691406 746.722656 513.339844 757.886719 513.289062 757.886719 C 507.527344 754.132812 502.023438 749.808594 496.828125 744.976562 C 472.804688 722.703125 455.472656 689.78125 453.054688 655.367188 C 446.828125 567.199219 519.410156 525.378906 598.9375 521.570312 C 797.394531 512.15625 964.367188 715.292969 1033.296875 821.773438 C 1044.253906 838.648438 1052.691406 853.101562 1058.453125 863.902344 C 1058.398438 863.957031 1058.398438 864.007812 1058.398438 864.007812 Z M 1058.398438 864.007812 " fill-opacity="1" fill-rule="nonzero"/><g mask="url(#758d84d9b4)"><g transform="matrix(1, 0, 0, 1, 567, 593)"><g clip-path="url(#b81271abc5)"><g clip-path="url(#d4f7e5b041)"><path fill="#ffffff" d="M 103.335938 79.289062 C 103.335938 79.289062 61.722656 27.902344 0.867188 22.910156 C 5.445312 8.199219 8.429688 0.945312 8.429688 0.945312 L 85.332031 10.566406 L 123.550781 23.992188 Z M 103.335938 79.289062 " fill-opacity="1" fill-rule="nonzero"/></g></g></g></g><g mask="url(#3c2d7f1017)"><g transform="matrix(1, 0, 0, 1, 612, 709)"><g clip-path="url(#4a581c25bf)"><g clip-path="url(#2e7b3631f8)"><path fill="#ffffff" d="M 42.800781 74.195312 C 41.050781 82.011719 38.6875 90.089844 35.496094 98.113281 C 25.054688 99.144531 14.613281 99.8125 4.066406 100.222656 C 4.117188 100.121094 4.167969 99.964844 4.222656 99.863281 C 3.242188 101.507812 2.214844 103.105469 1.238281 104.75 C 13.222656 69.824219 21.96875 36.285156 24.4375 0.378906 L 40.847656 10.460938 C 40.382812 11.695312 39.921875 12.980469 39.40625 14.214844 C 41.566406 14.011719 43.726562 13.804688 45.886719 13.597656 L 46.246094 13.804688 C 47.996094 29.441406 47.894531 50.890625 42.800781 74.195312 Z M 42.800781 74.195312 " fill-opacity="1" fill-rule="nonzero"/></g></g></g></g><path fill="#ffffff" d="M 766.425781 449.144531 C 723.9375 359.433594 667.609375 347.753906 651.816406 359.125 C 656.757812 354.03125 669.410156 347.804688 678.464844 345.800781 C 718.328125 337.210938 763.648438 342.816406 788.132812 354.289062 C 780.417969 353 772.703125 352.796875 766.375 352.949219 C 757.269531 353.207031 748.164062 352.332031 739.265625 350.222656 C 734.84375 349.195312 729.851562 348.371094 725.171875 348.476562 C 705.316406 348.886719 700.015625 352.539062 700.015625 352.539062 C 700.015625 352.539062 731.445312 370.027344 766.425781 449.144531 Z M 766.425781 449.144531 " fill-opacity="1" fill-rule="nonzero"/><g mask="url(#b14e7b147f)"><g transform="matrix(1, 0, 0, 1, 481, 683)"><g clip-path="url(#6ff65d62ee)"><g clip-path="url(#4ff6ca5d31)"><path fill="#ffffff" d="M 60.480469 8.425781 C 60.066406 9.453125 54.667969 23.34375 52.917969 27.820312 C 49.417969 36.5625 46.898438 41.707031 43.554688 49.421875 C 43.65625 49.527344 43.761719 49.628906 43.863281 49.679688 C 37.742188 63.722656 32.394531 74.886719 32.339844 74.886719 C 30.796875 78.382812 25.910156 88.722656 22.722656 94.433594 C 15.003906 89.699219 7.855469 84.609375 1.269531 79.257812 C 1.167969 79.207031 1.117188 79.105469 1.117188 79.105469 C 1.117188 79.105469 11.300781 67.839844 15.878906 61.976562 C 16.136719 61.667969 16.394531 61.304688 16.652344 60.996094 C 22.414062 53.539062 27.660156 45.925781 32.238281 38.773438 C 32.339844 38.621094 32.394531 38.519531 32.496094 38.363281 C 36.816406 31.523438 40.570312 25.144531 43.710938 19.589844 C 44.019531 19.074219 44.273438 18.558594 44.582031 18.042969 C 49.984375 8.21875 52.96875 1.738281 53.429688 0.8125 C 55.285156 3.382812 57.804688 5.75 60.480469 8.425781 Z M 60.480469 8.425781 " fill-opacity="1" fill-rule="nonzero"/></g></g></g></g><path fill="#ffffff" d="M 769.820312 362.105469 L 762.515625 358.453125 C 766.835938 360.460938 769.460938 361.902344 769.820312 362.105469 Z M 769.820312 362.105469 " fill-opacity="1" fill-rule="nonzero"/></svg>